inDegrees=no
num_controls=7
num_derivatives=13
num_iterations=113
num_multipliers=7
num_parameters=0
num_slacks=7
num_states=26
objective=0.478053
objective_accelerations=0.042377
objective_balance=0.003635
objective_effort=0.039248
objective_height=0.387078
objective_ligament=0.005715
solver_duration=1618.340059
status=Solve_Succeeded
success=true
DataType=double
version=3
OpenSimVersion=4.5
endheader
time	/jointset/ground_pelvis/pelvis_tilt/value	/jointset/ground_pelvis/pelvis_tx/value	/jointset/ground_pelvis/pelvis_ty/value	/jointset/hip_l/hip_flexion_l/value	/jointset/hip_l/hip_adduction_l/value	/jointset/hip_l/hip_rotation_l/value	/jointset/back/lumbar_extension/value	/jointset/patellofemoral_l/patellar_flexion_l/value	/jointset/knee_l/knee_flexion_l/value	/jointset/knee_l/knee_adduction_l/value	/jointset/knee_l/knee_rotation_l/value	/jointset/ankle_l/ankle_angle_l/value	/jointset/subtalar_l/subtalar_angle_l/value	/jointset/ground_pelvis/pelvis_tilt/speed	/jointset/ground_pelvis/pelvis_tx/speed	/jointset/ground_pelvis/pelvis_ty/speed	/jointset/hip_l/hip_flexion_l/speed	/jointset/hip_l/hip_adduction_l/speed	/jointset/hip_l/hip_rotation_l/speed	/jointset/back/lumbar_extension/speed	/jointset/patellofemoral_l/patellar_flexion_l/speed	/jointset/knee_l/knee_flexion_l/speed	/jointset/knee_l/knee_adduction_l/speed	/jointset/knee_l/knee_rotation_l/speed	/jointset/ankle_l/ankle_angle_l/speed	/jointset/subtalar_l/subtalar_angle_l/speed	/forceset/tau_hip_flexion_l	/forceset/tau_hip_adduction_l	/forceset/tau_hip_rotation_l	/forceset/tau_knee_flexion_l	/forceset/tau_ankle_angle_l	/forceset/tau_subtalar_angle_l	/forceset/tau_lumbar_extension	lambda_cid13_p0	lambda_cid13_p1	lambda_cid13_p2	lambda_cid13_p3	lambda_cid13_p4	lambda_cid13_p5	lambda_cid14_p0	/jointset/ground_pelvis/pelvis_tilt/accel	/jointset/ground_pelvis/pelvis_tx/accel	/jointset/ground_pelvis/pelvis_ty/accel	/jointset/hip_l/hip_flexion_l/accel	/jointset/hip_l/hip_adduction_l/accel	/jointset/hip_l/hip_rotation_l/accel	/jointset/back/lumbar_extension/accel	/jointset/patellofemoral_l/patellar_flexion_l/accel	/jointset/knee_l/knee_flexion_l/accel	/jointset/knee_l/knee_adduction_l/accel	/jointset/knee_l/knee_rotation_l/accel	/jointset/ankle_l/ankle_angle_l/accel	/jointset/subtalar_l/subtalar_angle_l/accel	gamma_cid13_p0	gamma_cid13_p1	gamma_cid13_p2	gamma_cid13_p3	gamma_cid13_p4	gamma_cid13_p5	gamma_cid14_p0
1	-0.1025450534241334	-0.05807073877148611	0.6951682349881652	1.284713687492971	-0.3293984829050885	0.06080431311588404	-0.9599258204032594	1.357228083787045	1.357228083787037	-0.07124434517082695	-0.1744400118349531	0.2697682612325796	0.05920020220670037	0.1065255625376358	0.02643550515336711	0.06949454451010523	-0.3012598269887532	-0.005607160785069067	-0.06878790430024874	-0.0003397735073272642	-0.1622819897118721	-0.1622819897118725	0.002419545931438471	-8.319685668165772e-05	0.02379321786803663	0.004092371750442913	-0.3668228121277529	0.02146404020972699	-3.155745571593471e-05	-0.3669113398218455	0.04205922148328425	0.02618899847024775	0.4221681438419894	-37.45399527035116	-3.939439483301435	-0.8274488810220589	12.35997274314685	-796.4034142102181	-67.51929329666748	-0.04209648737825802	0.9098795216845004	0.024627807828966	1.488512540609127	-4.943673850777429	-0.1030039290131362	-1.609606405596619	-0.0122155126313209	-4.859289702865731	-4.859289702865711	-0.332496479313697	-0.004298019629084653	-1.167595015400415	-0.6127374741598829	-1.051177206843576e-08	1.823925433235311e-08	6.616042094595959e-08	8.620457530130814e-09	-2.560959696180089e-08	1.143781456174366e-07	-1.621198536757529e-08
1.01	-0.1014350500356665	-0.05780513002215812	0.6959373541964896	1.281455199372338	-0.3294589384305505	0.06003524661638551	-0.9599288504171815	1.355362601012639	1.355362601012634	-0.07123496987051417	-0.1744401298827827	0.2699477910670615	0.05921149849024068	0.1154425104575293	0.02668961937789747	0.0843151692848423	-0.3503820045335324	-0.006473029633884429	-0.08501082878602899	-0.0002205572178634422	-0.2108165906174101	-0.2108165906174072	-0.0005509363014213121	6.375303279811536e-05	0.01208749624048185	-0.001829923358788758	-0.3658765272447737	0.02165307849548521	-0.0001024028122994619	-0.3667793957314698	0.04203054223538957	0.02629890339549753	0.4216987907878781	-37.42934897685267	-4.00024032941593	-0.8077566206988652	12.25379448105941	-796.0230209389683	-67.58661171720239	-0.04212868386690703	0.8777097029075539	0.02631237757490375	1.476711845785912	-4.88812369750064	-0.07674935729028209	-1.626467822175151	0.03084100866389941	-4.850844662203491	-4.850844662202984	-0.2803017221015168	0.0248390255404391	-1.175848868542162	-0.5815095454503322	-1.68928663737877e-08	1.044662455976248e-08	9.517322975171332e-08	1.467860489495288e-08	-3.203324738130753e-08	1.293978489325206e-07	-2.213732921882188e-08
1.02	-0.1002368557128474	-0.05753687830102285	0.6968542545325375	1.277707162678022	-0.3295277268433955	0.05910438440160784	-0.9599293181064255	1.353011712353618	1.353011712353615	-0.0712554949178959	-0.1744386489252567	0.2700095060588459	0.05916366501945956	0.1241637494080575	0.02696409951482061	0.099050770054776	-0.399169541725211	-0.00727373826168163	-0.1011470473560662	0.0001726914287462646	-0.2593631666351743	-0.2593631666351679	-0.003560523607458882	0.000236604214435122	0.000230249328561668	-0.007733579113841382	-0.3649302423617944	0.02184211678124343	-0.0001732481688829186	-0.3666474516410974	0.04200186298749489	0.02640880832075847	0.4212294377338269	-37.4164760384145	-4.05763733993671	-0.7901404993455308	12.20218642587004	-795.795819810641	-67.6313629163968	-0.04215894915068195	0.8707377278114441	0.02870099030752222	1.471507739648445	-4.876745780157335	-0.08997188480950392	-1.592265222448022	0.04259095879785968	-4.861684725310941	-4.861684725310942	-0.3403174939494424	0.0008822388023620679	-1.197900072273419	-0.6090096033240736	-2.31589960990842e-08	9.594897216593135e-10	1.220105408686898e-07	1.945745744190559e-08	-3.764752730799087e-08	1.447424200448029e-07	-2.82993803079524e-08
1.03	-0.09895266997522938	-0.05726553238066965	0.6979180133963273	1.273473095727893	-0.3296042221926961	0.05801270246447283	-0.9599228056366648	1.350175616314839	1.350175616314836	-0.07130634297093211	-0.1744353701522204	0.2699523074623187	0.05905704552515027	0.1326158351705493	0.0273333981155485	0.1136797006507807	-0.4475710021456238	-0.008018665140198012	-0.1171687899997938	0.001344329332015524	-0.3078270714613104	-0.3078270714613066	-0.00661684023357645	0.000413290742021388	-0.01165400009182319	-0.01357380212472226	-0.3652940178747872	0.02213828381120125	-0.0002855999433866647	-0.3658275679180186	0.04175249666553611	0.02666451900555848	0.4223049352567447	-37.48280480674637	-4.183745138926205	-0.7395760326941589	11.72651374656149	-796.1509422075295	-67.6887437771729	-0.04219042742654718	0.8238069366851886	0.04529620244970108	1.455381727032077	-4.810923121899355	-0.06576701755304641	-1.604074114659636	0.1866292273859678	-4.834390982228083	-4.834390982228442	-0.2894685872416567	0.02521693818984793	-1.181293742925539	-0.5690669981642964	-2.942395271642095e-08	-8.544935984459297e-09	1.488256530296583e-07	2.422325596010452e-08	-4.325354835209437e-08	1.600903061346076e-07	-3.446384677706133e-08
